<svg width="68" height="101" xmlns="http://www.w3.org/2000/svg"><g fill="#DF5337" fill-rule="evenodd"><path d="M40.45 14.732v52.067c0 3.442-2.468 6.513-5.882 6.951-4.13.531-7.665-2.687-7.665-6.715v-8.042c0-1.481-1.2-2.681-2.68-2.681-1.481 0-2.681 1.2-2.681 2.681 0 1.48-1.2 2.68-2.68 2.68h-.001c-1.48 0-2.68-1.2-2.68-2.68v-5.362c0-1.48-1.2-2.68-2.681-2.68-1.48 0-2.68 1.2-2.68 2.68v10.723c0 1.48-1.201 2.681-2.681 2.681s-2.681-1.201-2.681-2.681c0-1.481-1.2-2.681-2.68-2.681-1.481 0-2.681 1.2-2.681 2.681v2.051c0 18.336 14.438 33.766 32.77 34.199 18.884.447 34.389-14.785 34.389-33.569V14.353c0-7.617-6.354-13.75-14.051-13.388-7.209.34-12.755 6.55-12.755 13.767z"/><path d="M-.464 53.631c0 1.791 1.452 3.242 3.242 3.242s3.241-1.451 3.241-3.242c0-1.79-1.451-3.241-3.241-3.241s-3.242 1.451-3.242 3.241zM10.259 42.909c0 1.79 1.451 3.241 3.241 3.241s3.242-1.451 3.242-3.241-1.452-3.241-3.242-3.241-3.241 1.451-3.241 3.241zM20.981 48.27c0 1.79 1.452 3.242 3.242 3.242s3.241-1.452 3.241-3.242-1.451-3.241-3.241-3.241-3.242 1.451-3.242 3.241z"/></g></svg>